<mxfile host="app.diagrams.net" modified="2023-03-28T08:02:40.832Z" agent="5.0 (Macintosh; Intel Mac OS X 10_15_7) AppleWebKit/537.36 (KHTML, like Gecko) Chrome/111.0.0.0 Safari/537.36" etag="WPsFWU0MlMYnvSozVvSd" version="20.8.23" type="github">
  <diagram name="Page-1" id="DvnkW0nFzjkquib5UW7O">
    <mxGraphModel dx="892" dy="1771" grid="1" gridSize="10" guides="1" tooltips="1" connect="1" arrows="1" fold="1" page="1" pageScale="1" pageWidth="827" pageHeight="1169" math="0" shadow="0">
      <root>
        <mxCell id="0" />
        <mxCell id="1" style="locked=1;" parent="0" />
        <mxCell id="uHtPLLoRkdZR7AYn_E8j-5" style="edgeStyle=orthogonalEdgeStyle;rounded=0;orthogonalLoop=1;jettySize=auto;html=1;endArrow=none;endFill=0;" edge="1" parent="1" source="uHtPLLoRkdZR7AYn_E8j-2">
          <mxGeometry relative="1" as="geometry">
            <mxPoint x="140" y="561" as="targetPoint" />
          </mxGeometry>
        </mxCell>
        <mxCell id="uHtPLLoRkdZR7AYn_E8j-2" value="Client" style="rounded=0;whiteSpace=wrap;html=1;" vertex="1" parent="1">
          <mxGeometry x="80" y="40" width="120" height="40" as="geometry" />
        </mxCell>
        <mxCell id="uHtPLLoRkdZR7AYn_E8j-6" style="edgeStyle=orthogonalEdgeStyle;rounded=0;orthogonalLoop=1;jettySize=auto;html=1;endArrow=none;endFill=0;" edge="1" parent="1" source="uHtPLLoRkdZR7AYn_E8j-3">
          <mxGeometry relative="1" as="geometry">
            <mxPoint x="420" y="560" as="targetPoint" />
          </mxGeometry>
        </mxCell>
        <mxCell id="uHtPLLoRkdZR7AYn_E8j-3" value="Server" style="rounded=0;whiteSpace=wrap;html=1;" vertex="1" parent="1">
          <mxGeometry x="360" y="40" width="120" height="40" as="geometry" />
        </mxCell>
        <mxCell id="uHtPLLoRkdZR7AYn_E8j-7" style="edgeStyle=orthogonalEdgeStyle;rounded=0;orthogonalLoop=1;jettySize=auto;html=1;endArrow=none;endFill=0;" edge="1" parent="1" source="uHtPLLoRkdZR7AYn_E8j-4">
          <mxGeometry relative="1" as="geometry">
            <mxPoint x="700" y="560" as="targetPoint" />
          </mxGeometry>
        </mxCell>
        <mxCell id="uHtPLLoRkdZR7AYn_E8j-4" value="GA" style="rounded=0;whiteSpace=wrap;html=1;" vertex="1" parent="1">
          <mxGeometry x="640" y="40" width="120" height="40" as="geometry" />
        </mxCell>
        <mxCell id="uHtPLLoRkdZR7AYn_E8j-9" value="Processes" parent="0" />
        <mxCell id="uHtPLLoRkdZR7AYn_E8j-40" value="" style="rounded=0;whiteSpace=wrap;html=1;fillColor=#FFEBFE;strokeColor=#CCCCCC;" vertex="1" parent="uHtPLLoRkdZR7AYn_E8j-9">
          <mxGeometry x="370" y="150" width="100" height="200" as="geometry" />
        </mxCell>
        <mxCell id="uHtPLLoRkdZR7AYn_E8j-10" value="" style="rounded=0;whiteSpace=wrap;html=1;" vertex="1" parent="uHtPLLoRkdZR7AYn_E8j-9">
          <mxGeometry x="135" y="90" width="10" height="290" as="geometry" />
        </mxCell>
        <mxCell id="uHtPLLoRkdZR7AYn_E8j-12" style="rounded=0;orthogonalLoop=1;jettySize=auto;html=1;endArrow=classic;endFill=1;exitX=0.109;exitY=0.383;exitDx=0;exitDy=0;edgeStyle=elbowEdgeStyle;elbow=vertical;exitPerimeter=0;" edge="1" parent="uHtPLLoRkdZR7AYn_E8j-9" source="uHtPLLoRkdZR7AYn_E8j-11" target="uHtPLLoRkdZR7AYn_E8j-10">
          <mxGeometry relative="1" as="geometry">
            <mxPoint x="190" y="110" as="targetPoint" />
          </mxGeometry>
        </mxCell>
        <mxCell id="uHtPLLoRkdZR7AYn_E8j-13" value="HTML" style="edgeLabel;html=1;align=center;verticalAlign=middle;resizable=0;points=[];" vertex="1" connectable="0" parent="uHtPLLoRkdZR7AYn_E8j-12">
          <mxGeometry x="-0.0405" relative="1" as="geometry">
            <mxPoint as="offset" />
          </mxGeometry>
        </mxCell>
        <mxCell id="uHtPLLoRkdZR7AYn_E8j-11" value="" style="rounded=0;whiteSpace=wrap;html=1;" vertex="1" parent="uHtPLLoRkdZR7AYn_E8j-9">
          <mxGeometry x="414" y="90" width="10" height="30" as="geometry" />
        </mxCell>
        <mxCell id="uHtPLLoRkdZR7AYn_E8j-15" style="rounded=0;orthogonalLoop=1;jettySize=auto;elbow=vertical;html=1;endArrow=none;endFill=0;strokeColor=#808080;dashed=1;" edge="1" parent="uHtPLLoRkdZR7AYn_E8j-9" source="uHtPLLoRkdZR7AYn_E8j-14">
          <mxGeometry relative="1" as="geometry">
            <mxPoint x="280" y="90" as="targetPoint" />
          </mxGeometry>
        </mxCell>
        <mxCell id="uHtPLLoRkdZR7AYn_E8j-14" value="В HTML страницы содержится скрипт&amp;nbsp; (gaSnippet&lt;span style=&quot;background-color: initial;&quot;&gt;) подключающий GA по урлу&amp;nbsp;&lt;/span&gt;/analytics.js (gaScriptUrl&lt;span style=&quot;background-color: initial;&quot;&gt;).&lt;/span&gt;" style="text;html=1;strokeColor=none;fillColor=#F0EFD8;align=left;verticalAlign=top;whiteSpace=wrap;rounded=0;spacing=4;" vertex="1" parent="uHtPLLoRkdZR7AYn_E8j-9">
          <mxGeometry x="120" y="-70" width="220" height="60" as="geometry" />
        </mxCell>
        <mxCell id="uHtPLLoRkdZR7AYn_E8j-16" value="" style="rounded=0;whiteSpace=wrap;html=1;" vertex="1" parent="uHtPLLoRkdZR7AYn_E8j-9">
          <mxGeometry x="414" y="140" width="10" height="250" as="geometry" />
        </mxCell>
        <mxCell id="uHtPLLoRkdZR7AYn_E8j-17" style="rounded=0;orthogonalLoop=1;jettySize=auto;html=1;endArrow=classic;endFill=1;edgeStyle=elbowEdgeStyle;elbow=vertical;entryX=-0.035;entryY=0.084;entryDx=0;entryDy=0;entryPerimeter=0;" edge="1" parent="uHtPLLoRkdZR7AYn_E8j-9" source="uHtPLLoRkdZR7AYn_E8j-10" target="uHtPLLoRkdZR7AYn_E8j-16">
          <mxGeometry relative="1" as="geometry">
            <mxPoint x="425" y="111" as="sourcePoint" />
            <mxPoint x="419" y="150" as="targetPoint" />
          </mxGeometry>
        </mxCell>
        <mxCell id="uHtPLLoRkdZR7AYn_E8j-18" value="/analytics.js" style="edgeLabel;html=1;align=center;verticalAlign=middle;resizable=0;points=[];" vertex="1" connectable="0" parent="uHtPLLoRkdZR7AYn_E8j-17">
          <mxGeometry x="-0.0405" relative="1" as="geometry">
            <mxPoint as="offset" />
          </mxGeometry>
        </mxCell>
        <mxCell id="uHtPLLoRkdZR7AYn_E8j-23" style="rounded=0;orthogonalLoop=1;jettySize=auto;html=1;endArrow=classic;endFill=1;edgeStyle=elbowEdgeStyle;elbow=vertical;exitX=-0.122;exitY=0.894;exitDx=0;exitDy=0;exitPerimeter=0;" edge="1" parent="uHtPLLoRkdZR7AYn_E8j-9" source="uHtPLLoRkdZR7AYn_E8j-16" target="uHtPLLoRkdZR7AYn_E8j-10">
          <mxGeometry relative="1" as="geometry">
            <mxPoint x="390" y="200" as="sourcePoint" />
            <mxPoint x="290" y="290" as="targetPoint" />
          </mxGeometry>
        </mxCell>
        <mxCell id="uHtPLLoRkdZR7AYn_E8j-24" value="Файл analytics.js" style="edgeLabel;html=1;align=center;verticalAlign=middle;resizable=0;points=[];" vertex="1" connectable="0" parent="uHtPLLoRkdZR7AYn_E8j-23">
          <mxGeometry x="-0.0405" relative="1" as="geometry">
            <mxPoint as="offset" />
          </mxGeometry>
        </mxCell>
        <mxCell id="uHtPLLoRkdZR7AYn_E8j-25" value="" style="rounded=0;whiteSpace=wrap;html=1;" vertex="1" parent="uHtPLLoRkdZR7AYn_E8j-9">
          <mxGeometry x="419" y="190" width="10" height="80" as="geometry" />
        </mxCell>
        <mxCell id="uHtPLLoRkdZR7AYn_E8j-27" style="rounded=0;orthogonalLoop=1;jettySize=auto;html=1;endArrow=classic;endFill=1;edgeStyle=orthogonalEdgeStyle;elbow=vertical;" edge="1" parent="uHtPLLoRkdZR7AYn_E8j-9" source="uHtPLLoRkdZR7AYn_E8j-16" target="uHtPLLoRkdZR7AYn_E8j-25">
          <mxGeometry relative="1" as="geometry">
            <mxPoint x="155" y="166" as="sourcePoint" />
            <mxPoint x="424" y="166" as="targetPoint" />
            <Array as="points">
              <mxPoint x="460" y="156" />
              <mxPoint x="460" y="203" />
            </Array>
          </mxGeometry>
        </mxCell>
        <mxCell id="uHtPLLoRkdZR7AYn_E8j-28" value="createScriptProxy" style="edgeLabel;html=1;align=center;verticalAlign=middle;resizable=0;points=[];" vertex="1" connectable="0" parent="uHtPLLoRkdZR7AYn_E8j-27">
          <mxGeometry x="-0.0405" relative="1" as="geometry">
            <mxPoint x="50" y="4" as="offset" />
          </mxGeometry>
        </mxCell>
        <mxCell id="uHtPLLoRkdZR7AYn_E8j-29" style="rounded=0;orthogonalLoop=1;jettySize=auto;html=1;endArrow=classic;endFill=1;edgeStyle=elbowEdgeStyle;exitX=0.955;exitY=0.311;exitDx=0;exitDy=0;elbow=vertical;exitPerimeter=0;" edge="1" parent="uHtPLLoRkdZR7AYn_E8j-9" source="uHtPLLoRkdZR7AYn_E8j-25" target="uHtPLLoRkdZR7AYn_E8j-31">
          <mxGeometry relative="1" as="geometry">
            <mxPoint x="460" y="250" as="sourcePoint" />
            <mxPoint x="670" y="230" as="targetPoint" />
          </mxGeometry>
        </mxCell>
        <mxCell id="uHtPLLoRkdZR7AYn_E8j-30" value="www.google-analytics.com/analytics.js" style="edgeLabel;html=1;align=center;verticalAlign=middle;resizable=0;points=[];" vertex="1" connectable="0" parent="uHtPLLoRkdZR7AYn_E8j-29">
          <mxGeometry x="-0.0405" relative="1" as="geometry">
            <mxPoint as="offset" />
          </mxGeometry>
        </mxCell>
        <mxCell id="uHtPLLoRkdZR7AYn_E8j-31" value="" style="rounded=0;whiteSpace=wrap;html=1;" vertex="1" parent="uHtPLLoRkdZR7AYn_E8j-9">
          <mxGeometry x="695" y="210" width="10" height="50" as="geometry" />
        </mxCell>
        <mxCell id="uHtPLLoRkdZR7AYn_E8j-32" style="rounded=0;orthogonalLoop=1;jettySize=auto;html=1;endArrow=classic;endFill=1;edgeStyle=elbowEdgeStyle;exitX=0;exitY=0.75;exitDx=0;exitDy=0;elbow=vertical;" edge="1" parent="uHtPLLoRkdZR7AYn_E8j-9" source="uHtPLLoRkdZR7AYn_E8j-31" target="uHtPLLoRkdZR7AYn_E8j-25">
          <mxGeometry relative="1" as="geometry">
            <mxPoint x="439" y="380" as="sourcePoint" />
            <mxPoint x="620" y="450" as="targetPoint" />
          </mxGeometry>
        </mxCell>
        <mxCell id="uHtPLLoRkdZR7AYn_E8j-33" value="Файл analytics.js" style="edgeLabel;html=1;align=center;verticalAlign=middle;resizable=0;points=[];" vertex="1" connectable="0" parent="uHtPLLoRkdZR7AYn_E8j-32">
          <mxGeometry x="-0.0405" relative="1" as="geometry">
            <mxPoint as="offset" />
          </mxGeometry>
        </mxCell>
        <mxCell id="uHtPLLoRkdZR7AYn_E8j-34" value="" style="rounded=0;whiteSpace=wrap;html=1;" vertex="1" parent="uHtPLLoRkdZR7AYn_E8j-9">
          <mxGeometry x="419" y="310" width="10" height="30" as="geometry" />
        </mxCell>
        <mxCell id="uHtPLLoRkdZR7AYn_E8j-35" style="rounded=0;orthogonalLoop=1;jettySize=auto;html=1;endArrow=classic;endFill=1;edgeStyle=orthogonalEdgeStyle;elbow=vertical;entryX=1;entryY=0.25;entryDx=0;entryDy=0;" edge="1" parent="uHtPLLoRkdZR7AYn_E8j-9" target="uHtPLLoRkdZR7AYn_E8j-34">
          <mxGeometry relative="1" as="geometry">
            <mxPoint x="424" y="286" as="sourcePoint" />
            <mxPoint x="429" y="333" as="targetPoint" />
            <Array as="points">
              <mxPoint x="460" y="286" />
              <mxPoint x="460" y="318" />
              <mxPoint x="429" y="318" />
            </Array>
          </mxGeometry>
        </mxCell>
        <mxCell id="uHtPLLoRkdZR7AYn_E8j-36" value="patch" style="edgeLabel;html=1;align=center;verticalAlign=middle;resizable=0;points=[];" vertex="1" connectable="0" parent="uHtPLLoRkdZR7AYn_E8j-35">
          <mxGeometry x="-0.0405" relative="1" as="geometry">
            <mxPoint x="20" y="4" as="offset" />
          </mxGeometry>
        </mxCell>
        <mxCell id="uHtPLLoRkdZR7AYn_E8j-37" value="Операция patch (см. createScriptProxy) заменяет все упоминания&amp;nbsp;www.google-analytics.com на&amp;nbsp;location.host." style="text;html=1;strokeColor=none;fillColor=#F0EFD8;align=left;verticalAlign=top;whiteSpace=wrap;rounded=0;spacing=4;" vertex="1" parent="uHtPLLoRkdZR7AYn_E8j-9">
          <mxGeometry x="450" y="380" width="230" height="60" as="geometry" />
        </mxCell>
        <mxCell id="uHtPLLoRkdZR7AYn_E8j-38" style="rounded=0;orthogonalLoop=1;jettySize=auto;elbow=vertical;html=1;endArrow=none;endFill=0;strokeColor=#808080;dashed=1;" edge="1" parent="uHtPLLoRkdZR7AYn_E8j-9" target="uHtPLLoRkdZR7AYn_E8j-37">
          <mxGeometry relative="1" as="geometry">
            <mxPoint x="290" y="100" as="targetPoint" />
            <mxPoint x="480" y="310" as="sourcePoint" />
          </mxGeometry>
        </mxCell>
        <mxCell id="uHtPLLoRkdZR7AYn_E8j-39" value="" style="rounded=0;whiteSpace=wrap;html=1;" vertex="1" parent="uHtPLLoRkdZR7AYn_E8j-9">
          <mxGeometry x="135" y="420" width="10" height="150" as="geometry" />
        </mxCell>
        <mxCell id="uHtPLLoRkdZR7AYn_E8j-41" value="Пакет&amp;nbsp;joom-express-middlewares." style="text;html=1;strokeColor=none;fillColor=#F0EFD8;align=left;verticalAlign=top;whiteSpace=wrap;rounded=0;spacing=4;" vertex="1" parent="uHtPLLoRkdZR7AYn_E8j-9">
          <mxGeometry x="480" y="-50" width="230" height="30" as="geometry" />
        </mxCell>
        <mxCell id="uHtPLLoRkdZR7AYn_E8j-42" style="rounded=0;orthogonalLoop=1;jettySize=auto;elbow=vertical;html=1;endArrow=none;endFill=0;strokeColor=#808080;exitX=0.889;exitY=-0.007;exitDx=0;exitDy=0;exitPerimeter=0;dashed=1;" edge="1" parent="uHtPLLoRkdZR7AYn_E8j-9" source="uHtPLLoRkdZR7AYn_E8j-40" target="uHtPLLoRkdZR7AYn_E8j-41">
          <mxGeometry relative="1" as="geometry">
            <mxPoint x="550" y="390" as="targetPoint" />
            <mxPoint x="490" y="320" as="sourcePoint" />
          </mxGeometry>
        </mxCell>
        <mxCell id="uHtPLLoRkdZR7AYn_E8j-43" style="rounded=0;orthogonalLoop=1;jettySize=auto;html=1;endArrow=classic;endFill=1;edgeStyle=elbowEdgeStyle;exitX=0.909;exitY=0.103;exitDx=0;exitDy=0;exitPerimeter=0;elbow=vertical;" edge="1" parent="uHtPLLoRkdZR7AYn_E8j-9" source="uHtPLLoRkdZR7AYn_E8j-39" target="uHtPLLoRkdZR7AYn_E8j-45">
          <mxGeometry relative="1" as="geometry">
            <mxPoint x="210" y="450" as="sourcePoint" />
            <mxPoint x="360" y="430" as="targetPoint" />
          </mxGeometry>
        </mxCell>
        <mxCell id="uHtPLLoRkdZR7AYn_E8j-44" value="/analytics/…" style="edgeLabel;html=1;align=center;verticalAlign=middle;resizable=0;points=[];" vertex="1" connectable="0" parent="uHtPLLoRkdZR7AYn_E8j-43">
          <mxGeometry x="-0.0405" relative="1" as="geometry">
            <mxPoint as="offset" />
          </mxGeometry>
        </mxCell>
        <mxCell id="uHtPLLoRkdZR7AYn_E8j-45" value="" style="rounded=0;whiteSpace=wrap;html=1;" vertex="1" parent="uHtPLLoRkdZR7AYn_E8j-9">
          <mxGeometry x="414" y="420" width="10" height="130" as="geometry" />
        </mxCell>
      </root>
    </mxGraphModel>
  </diagram>
</mxfile>
